<?xml version="1.0" encoding="UTF-8"?>
<!-- Generator: visioncortex VTracer 0.6.12 -->
<svg version="1.1" xmlns="http://www.w3.org/2000/svg" width="512" height="512" viewBox="0 0 512 512">
<path d="M0 0 C3.889 0.566 7.331 2.454 10.812 4.188 C11.434 4.496 12.055 4.805 12.696 5.123 C17.46 7.565 21.185 10.276 25 14 C24.49 19.125 21.922 22.725 19.188 26.938 C18.749 27.628 18.31 28.318 17.857 29.029 C15.29 33.054 12.661 37.036 10 41 C5.282 40.475 1.965 38.29 -1.875 35.688 C-6.496 32.605 -11.149 29.711 -16 27 C-15.433 22.937 -14.17 20.334 -11.875 16.953 C-11.251 16.026 -10.627 15.099 -9.984 14.145 C-9.33 13.189 -8.675 12.234 -8 11.25 C-7.345 10.279 -6.69 9.309 -6.016 8.309 C-1.211 1.211 -1.211 1.211 0 0 Z " fill="#ffffff" transform="translate(341,85)"/>
<path d="M0 0 C8.401 6.792 11.518 14.972 12.938 25.375 C14.258 39.21 14.943 53.59 12.938 67.375 C11.125 68.062 11.125 68.062 8.938 68.375 C7.277 67.434 7.277 67.434 5.938 65.375 C5.335 62.702 4.876 60.142 4.5 57.438 C1.194 36.559 1.194 36.559 -5.062 31.375 C-8.975 30.414 -11.229 30.097 -15.062 31.375 C-15.793 33.015 -16.448 34.688 -17.062 36.375 C-18.115 38.268 -19.201 40.142 -20.312 42 C-22.612 45.865 -24.773 49.743 -26.812 53.75 C-38.264 74.934 -58.734 91.711 -80.062 102.375 C-62.776 105.538 -44.655 104.563 -27.135 104.56 C-24.144 104.56 -21.154 104.567 -18.163 104.581 C4.344 104.682 26.531 103.681 48.938 101.375 C50.267 105.866 49.508 109.47 48.312 113.875 C48.159 114.526 48.006 115.177 47.848 115.848 C46.56 120.714 45.098 123.525 40.938 126.375 C36.535 127.584 32.079 128.186 27.562 128.812 C24.924 129.226 22.288 129.645 19.652 130.074 C18.993 130.181 18.334 130.287 17.655 130.397 C-11.68 135.219 -41.657 145.958 -64.945 164.793 C-67.062 166.375 -67.062 166.375 -69.062 166.375 C-69.062 167.035 -69.062 167.695 -69.062 168.375 C-70.531 169.82 -70.531 169.82 -72.562 171.5 C-91.147 187.397 -101.557 206.272 -103.875 230.688 C-104.806 249.778 -100.546 267.484 -88.293 282.551 C-68.682 303.813 -33.799 308.245 -6.396 309.549 C2.088 309.804 10.572 309.81 19.059 309.761 C21.153 309.75 23.248 309.745 25.342 309.742 C47.635 309.7 69.769 308.844 91.938 306.375 C92.597 307.695 93.257 309.015 93.938 310.375 C91.437 314.717 87.766 316.134 83.312 317.938 C82.505 318.27 81.697 318.602 80.865 318.944 C61.294 326.78 40.809 334.124 19.938 337.375 C19.266 337.486 18.595 337.598 17.904 337.712 C-13.278 342.822 -58.461 339.116 -85.062 320.375 C-88.611 317.569 -91.857 314.565 -95.062 311.375 C-95.836 310.636 -96.609 309.898 -97.406 309.137 C-112.245 294.019 -117.485 272.812 -117.375 252.188 C-117.373 251.644 -117.373 251.644 -117.362 248.895 C-117.235 239.769 -116.188 231.237 -114.062 222.375 C-113.796 221.226 -113.529 220.078 -113.254 218.895 C-108.097 198.976 -98.579 180.619 -86.062 164.375 C-85.762 163.972 -85.762 163.972 -84.238 161.93 C-80.429 156.962 -76.297 152.358 -71.938 147.875 C-71.466 147.378 -70.995 146.88 -70.509 146.368 C-66.622 142.462 -62.305 139.325 -57.817 136.158 C-57.167 135.697 -56.517 135.236 -55.847 134.76 C-54.254 133.63 -52.658 132.502 -51.062 131.375 C-51.998 131.367 -52.933 131.359 -53.896 131.35 C-62.696 131.273 -71.496 131.185 -80.295 131.087 C-84.82 131.037 -89.344 130.991 -93.868 130.953 C-98.232 130.916 -102.595 130.87 -106.959 130.817 C-108.626 130.798 -110.294 130.783 -111.961 130.772 C-114.291 130.755 -116.621 130.726 -118.951 130.694 C-119.298 130.693 -119.298 130.693 -121.054 130.687 C-125.834 130.603 -125.834 130.603 -128.062 128.375 C-127.779 123.891 -125.672 120.735 -123.312 117 C-122.637 115.92 -121.962 114.84 -121.266 113.727 C-120.533 112.608 -119.799 111.491 -119.062 110.375 C-118.687 109.781 -118.312 109.187 -117.926 108.575 C-114.935 104.057 -111.694 101.295 -107.125 98.438 C-106.793 98.223 -106.793 98.223 -105.115 97.139 C-99.913 93.816 -94.562 90.778 -89.184 87.75 C-62.049 72.256 -39.65 57.656 -27.512 27.902 C-25.737 23.583 -23.919 19.285 -22.062 15 C-21.742 14.239 -21.422 13.478 -21.093 12.694 C-18.727 7.274 -16.061 2.503 -11.125 -1 C-6.796 -2.312 -4.014 -2.13 0 0 Z " fill="#ffffff" transform="translate(234.0625,95.625)"/>
<path d="M0 0 C11.236 5.448 17.554 18.896 21.547 30.176 C30.758 57.992 30.165 85.577 17.523 112.098 C4.87 136.153 -14.587 153.926 -40.602 162.137 C-52.594 165.183 -62.406 161.219 -73.525 156.945 C-75.815 156.071 -78.113 155.233 -80.422 154.41 C-102.488 146.496 -102.488 146.496 -105.32 141.82 C-105.545 141.22 -105.769 140.619 -106 140 C-103.526 138.395 -102.407 137.932 -99.449 138.426 C-98.538 138.718 -97.626 139.011 -96.688 139.312 C-81.764 144.017 -62.386 144.45 -48 138 C-47.688 137.86 -47.688 137.86 -46.108 137.154 C-22.968 126.629 4.786 107.608 15 83 C16.914 67.411 3.06 51.659 -6 40 C-6.583 39.35 -7.165 38.701 -7.766 38.031 C-10.104 34.183 -9.12 30.573 -8.23 26.336 C-7.89 25.014 -7.542 23.693 -7.188 22.375 C-6.819 20.964 -6.45 19.552 -6.082 18.141 C-5.899 17.445 -5.715 16.75 -5.526 16.033 C-4.515 12.126 -3.621 8.189 -2.711 4.258 C-2 2 -2 2 0 0 Z " fill="#ffffff" transform="translate(374,183)"/>
<path d="M0 0 C8.701 0.892 16.406 6.64 23 12 C21.227 17.132 18.415 21.624 15.625 26.25 C15.143 27.078 14.661 27.905 14.164 28.758 C13.69 29.544 13.215 30.33 12.727 31.141 C12.513 31.499 12.513 31.499 11.432 33.313 C10 35 10 35 8.021 35.847 C4.155 36.14 0.921 32.957 -2.135 30.805 C-4.69 29.099 -6.556 28.026 -9.652 27.844 C-13.067 29.525 -14.388 32.266 -16.125 35.5 C-19.632 41.877 -19.632 41.877 -23 43 C-26.567 41.474 -29.815 39.328 -33.125 37.312 C-34.057 36.769 -34.989 36.226 -35.949 35.666 C-36.835 35.133 -37.72 34.6 -38.633 34.051 C-39.446 33.563 -40.26 33.074 -41.098 32.572 C-43 31 -43 31 -43.879 29.01 C-44.09 25.51 -41.784 22.958 -39.875 20.188 C-39.461 19.566 -39.046 18.945 -38.619 18.304 C-35.831 14.143 -32.975 10.03 -30 6 C-25.921 6.592 -22.993 7.943 -19.438 10 C-16.296 11.812 -13.58 13.326 -10 14 C-9.446 13.157 -8.891 12.314 -8.32 11.445 C-7.596 10.35 -6.871 9.254 -6.125 8.125 C-5.406 7.034 -4.686 5.944 -3.945 4.82 C-2 2 -2 2 0 0 Z " fill="#ffffff" transform="translate(260,254)"/>
<path d="M0 0 C4.878 2.327 9.505 5.003 14 8 C14 8.66 14 9.32 14 10 C15.32 10.66 16.64 11.32 18 12 C17.435 15.603 16.523 18.193 14.602 21.285 C14.122 22.063 13.642 22.841 13.148 23.643 C12.646 24.441 12.143 25.24 11.625 26.062 C11.13 26.865 10.635 27.667 10.125 28.494 C7.878 32.114 5.593 35.616 3 39 C-2.08 38.513 -5.385 35.977 -9.438 33.125 C-13.84 30.06 -18.118 27.279 -23 25 C-22.429 21.087 -21.287 18.472 -19.129 15.172 C-18.555 14.29 -17.98 13.408 -17.389 12.5 C-16.786 11.592 -16.183 10.685 -15.562 9.75 C-14.964 8.827 -14.365 7.904 -13.748 6.953 C-7.698 -2.262 -7.698 -2.262 0 0 Z " fill="#ffffff" transform="translate(218,311)"/>
<path d="M0 0 C0.424 6.789 -1.088 11.788 -4.562 17.625 C-10.189 23.107 -17.706 26.409 -24.57 30.113 C-29.14 32.627 -33.662 35.221 -38.188 37.812 C-39.093 38.329 -39.998 38.845 -40.931 39.376 C-45.22 41.823 -49.496 44.286 -53.738 46.812 C-54.462 47.237 -55.185 47.661 -55.931 48.098 C-57.274 48.886 -58.61 49.685 -59.938 50.497 C-62.839 52.184 -64.546 53.042 -67.938 52.73 C-68.618 52.489 -69.299 52.248 -70 52 C-70.479 47.452 -70.708 44.239 -67.875 40.5 C-64.474 36.998 -60.473 34.782 -56.209 32.464 C-50.427 29.314 -44.908 25.816 -39.375 22.25 C-29.672 16.018 -19.854 10.005 -9.921 4.147 C-8.306 3.183 -6.715 2.18 -5.129 1.168 C-3 0 -3 0 0 0 Z " fill="#ffffff" transform="translate(405,375)"/>
</svg>
