<?xml version="1.0" encoding="UTF-8"?>
<svg xmlns="http://www.w3.org/2000/svg" viewBox="0 0 64 64">
  <defs>
    <linearGradient id="flame" x1="32" y1="62" x2="32" y2="2" gradientUnits="userSpaceOnUse">
      <stop offset="0%" stop-color="#3a0080"/>
      <stop offset="35%" stop-color="#7c4dff"/>
      <stop offset="75%" stop-color="#bb86fc"/>
      <stop offset="100%" stop-color="#f3e6ff"/>
    </linearGradient>
    <linearGradient id="core" x1="32" y1="56" x2="32" y2="24" gradientUnits="userSpaceOnUse">
      <stop offset="0%" stop-color="#bb86fc"/>
      <stop offset="100%" stop-color="#ffffff"/>
    </linearGradient>
  </defs>
  <path d="M 32 3
           C 30 14, 22 19, 21 30
           C 19 22, 14 21, 14 30
           C 12 44, 20 58, 32 60
           C 44 58, 52 44, 50 30
           C 50 21, 45 22, 43 30
           C 42 19, 34 14, 32 3 Z"
        fill="url(#flame)"/>
  <path d="M 32 28
           C 30 36, 26 40, 26 47
           C 26 53, 28 57, 32 57
           C 36 57, 38 53, 38 47
           C 38 40, 34 36, 32 28 Z"
        fill="url(#core)"
        opacity="0.85"/>
</svg>
